<?xml version="1.0" encoding="utf-8"?>
<!-- Generator: Adobe Illustrator 19.2.0, SVG Export Plug-In . SVG Version: 6.00 Build 0)  -->
<svg version="1.1" id="Layer_1" xmlns="http://www.w3.org/2000/svg" xmlns:xlink="http://www.w3.org/1999/xlink" x="0px" y="0px"
	 viewBox="0 0 128 128" style="enable-background:new 0 0 128 128;" xml:space="preserve">
<style type="text/css">
	.st0{fill:#FFFFFF;}
	.st1{fill:none;stroke:#242C88;stroke-width:2;stroke-linecap:round;stroke-linejoin:round;stroke-miterlimit:10;}
	.st2{fill:#83D689;}
	.st3{opacity:0.2;fill:#242C88;enable-background:new    ;}
	
		.st4{opacity:0.2;fill:none;stroke:#242C88;stroke-width:2;stroke-linecap:round;stroke-linejoin:round;stroke-miterlimit:10;enable-background:new    ;}
	.st5{fill:#FFC408;}
	.st6{fill:#5E61A3;}
	.st7{fill:#F3877E;}
</style>
<rect x="11" y="17" class="st0" width="68" height="83"/>
<rect x="11" y="17" class="st1" width="68" height="83"/>
<path class="st2" d="M33,46H23c-1.1,0-2-0.9-2-2V34c0-1.1,0.9-2,2-2h10c1.1,0,2,0.9,2,2v10C35,45.1,34.1,46,33,46z"/>
<path class="st2" d="M32.8,66H23c-1.1,0-2-0.9-2-2V54c0-1.1,0.9-2,2-2h10c1.1,0,2,0.9,2,2v9.8C35,65,34,66,32.8,66z"/>
<path class="st2" d="M33,87H23c-1.1,0-2-0.9-2-2V75c0-1.1,0.9-2,2-2h10c1.1,0,2,0.9,2,2v10C35,86.1,34.1,87,33,87z"/>
<path class="st1" d="M33,46H23c-1.1,0-2-0.9-2-2V34c0-1.1,0.9-2,2-2h10c1.1,0,2,0.9,2,2v10C35,45.1,34.1,46,33,46z"/>
<path class="st1" d="M32.8,66H23c-1.1,0-2-0.9-2-2V54c0-1.1,0.9-2,2-2h10c1.1,0,2,0.9,2,2v9.8C35,65,34,66,32.8,66z"/>
<path class="st1" d="M33,87H23c-1.1,0-2-0.9-2-2V75c0-1.1,0.9-2,2-2h10c1.1,0,2,0.9,2,2v10C35,86.1,34.1,87,33,87z"/>
<path class="st3" d="M79,101V24H28c-1.1,0-2,0.9-2,2v75H79z"/>
<rect x="31" y="29" class="st0" width="68" height="83"/>
<rect x="31" y="29" class="st1" width="68" height="83"/>
<line class="st4" x1="63" y1="53" x2="75" y2="53"/>
<line class="st4" x1="63" y1="48" x2="87" y2="48"/>
<path class="st2" d="M54,58H44c-1.1,0-2-0.9-2-2V46c0-1.1,0.9-2,2-2h10c1.1,0,2,0.9,2,2v10C56,57.1,55.1,58,54,58z"/>
<polyline class="st1" points="45.3,51.7 48.2,54.4 53.9,48.6 "/>
<line class="st4" x1="63" y1="74" x2="75" y2="74"/>
<line class="st4" x1="63" y1="68" x2="87" y2="68"/>
<path class="st2" d="M54,78H44c-1.1,0-2-0.9-2-2V66c0-1.1,0.9-2,2-2h9.8c1.2,0,2.2,1,2.2,2.2V76C56,77.1,55.1,78,54,78z"/>
<polyline class="st1" points="45.3,71.9 48.2,74.6 53.9,68.9 "/>
<line class="st4" x1="63" y1="94" x2="75" y2="94"/>
<line class="st4" x1="63" y1="89" x2="87" y2="89"/>
<path class="st2" d="M54,98H44c-1.1,0-2-0.9-2-2V86c0-1.1,0.9-2,2-2h10c1.1,0,2,0.9,2,2v10C56,97.1,55.1,98,54,98z"/>
<path class="st1" d="M54,58H44c-1.1,0-2-0.9-2-2V46c0-1.1,0.9-2,2-2h10c1.1,0,2,0.9,2,2v10C56,57.1,55.1,58,54,58z"/>
<path class="st1" d="M54,78H44c-1.1,0-2-0.9-2-2V66c0-1.1,0.9-2,2-2h9.8c1.2,0,2.2,1,2.2,2.2V76C56,77.1,55.1,78,54,78z"/>
<path class="st1" d="M54,98H44c-1.1,0-2-0.9-2-2V86c0-1.1,0.9-2,2-2h10c1.1,0,2,0.9,2,2v10C56,97.1,55.1,98,54,98z"/>
<polygon class="st3" points="99,57.6 65.2,77.5 53.6,94.9 74.4,93.1 99,78.6 "/>
<g>
	<polygon class="st0" points="111.4,50.1 73.8,87.7 54.1,94.6 61,74.9 98.6,37.3 	"/>
	
		<rect x="59.6" y="53.5" transform="matrix(0.7071 -0.7071 0.7071 0.7071 -18.9814 79.2906)" class="st5" width="53.2" height="18.1"/>
	
		<rect x="64.1" y="64.4" transform="matrix(0.7071 -0.7071 0.7071 0.7071 -20.8568 83.7905)" class="st3" width="53.2" height="5.3"/>
	<polygon class="st6" points="57.1,86 54.1,94.4 62.5,91.4 	"/>
	<polygon class="st1" points="111.4,50.1 73.8,87.7 54.1,94.6 61,74.9 98.6,37.3 	"/>
	<path class="st7" d="M111.4,50.1l6-6c1.7-1.7,1.7-4.4,0-6l-6.8-6.8c-1.7-1.7-4.4-1.7-6,0l-6,6L111.4,50.1z"/>
	<path class="st1" d="M111.4,50.1l6-6c1.7-1.7,1.7-4.4,0-6l-6.8-6.8c-1.7-1.7-4.4-1.7-6,0l-6,6L111.4,50.1z"/>
	<line class="st1" x1="80.6" y1="73.4" x2="106.9" y2="47.1"/>
	<line class="st1" x1="70" y1="84" x2="76.1" y2="77.9"/>
	<rect x="101" y="35.1" transform="matrix(0.7071 -0.7071 0.7071 0.7071 -0.5816 86.9382)" class="st0" width="7.4" height="18.1"/>
	<rect x="101" y="35.1" transform="matrix(0.7071 -0.7071 0.7071 0.7071 -0.5816 86.9382)" class="st3" width="7.4" height="18.1"/>
	<rect x="101" y="35.1" transform="matrix(0.7071 -0.7071 0.7071 0.7071 -0.5816 86.9382)" class="st1" width="7.4" height="18.1"/>
</g>
</svg>
