<?xml version="1.0" encoding="utf-8"?>
<!-- Generator: Adobe Illustrator 19.2.0, SVG Export Plug-In . SVG Version: 6.00 Build 0)  -->
<svg version="1.1" id="Layer_1" xmlns="http://www.w3.org/2000/svg" xmlns:xlink="http://www.w3.org/1999/xlink" x="0px" y="0px"
	 viewBox="0 0 64 64" style="enable-background:new 0 0 64 64;" xml:space="preserve">
<style type="text/css">
	.st0{fill:#212121;}
	.st1{fill:#90A4AE;}
	.st2{fill:#EEEEEE;}
	.st3{fill:#29B6F6;}
	.st4{fill:#FDD835;}
	.st5{fill:#F44336;}
	.st6{fill:#B0BEC5;}
	.st7{fill:#263238;}
</style>
<g id="row_4">
</g>
<g id="row_3">
	<g id="diagram">
		<g>
			<path class="st0" d="M31,58c0,0.6,0.4,1,1,1c0.6,0,1-0.4,1-1v-0.8h-2V58z"/>
			<path class="st1" d="M32,47c-0.6,0-1,0.4-1,1v9.2h2V48C33,47.4,32.6,47,32,47z"/>
			<path class="st0" d="M19.3,56.3c-0.4,0.4-0.4,1,0,1.4c0.2,0.2,0.5,0.3,0.7,0.3s0.5-0.1,0.7-0.3l0.6-0.6l-1.4-1.4L19.3,56.3z"/>
			<path class="st1" d="M29.7,47.3c-0.4-0.4-1-0.4-1.4,0l-8.4,8.4l1.4,1.4l8.4-8.4C30.1,48.3,30.1,47.7,29.7,47.3z"/>
			<path class="st1" d="M35.7,47.3c-0.4-0.4-1-0.4-1.4,0s-0.4,1,0,1.4l8.4,8.4l1.4-1.4L35.7,47.3z"/>
			<path class="st0" d="M44.1,55.7l-1.4,1.4l0.6,0.6c0.2,0.2,0.5,0.3,0.7,0.3s0.5-0.1,0.7-0.3c0.4-0.4,0.4-1,0-1.4L44.1,55.7z"/>
		</g>
		<rect x="10.5" y="12.5" class="st2" width="43" height="33"/>
		<path class="st3" d="M22.2,21.7c-4.9,4.9-4.9,12.8,0,17.7c2.4,2.4,5.6,3.7,8.8,3.7V18C27.8,18,24.6,19.2,22.2,21.7z"/>
		<path class="st4" d="M39.8,39.3c4.9-4.9,4.9-12.8,0-17.7L31,30.5V43C34.2,43,37.4,41.8,39.8,39.3z"/>
		<path class="st5" d="M34,15v12.5l8.8-8.8C40.4,16.2,37.2,15,34,15z"/>
		<rect x="8" y="7" class="st6" width="48" height="6"/>
		<rect x="8" y="45" class="st6" width="48" height="4"/>
		<rect x="56" y="6" class="st7" width="4" height="8"/>
		<rect x="4" y="6" class="st7" width="4" height="8"/>
		<rect x="5" y="44" class="st7" width="3" height="6"/>
		<rect x="56" y="44" class="st7" width="3" height="6"/>
	</g>
</g>
<g id="row_2">
</g>
<g id="row_1">
</g>
</svg>
