<?xml version="1.0" encoding="utf-8"?>
<!-- Generator: Adobe Illustrator 19.2.0, SVG Export Plug-In . SVG Version: 6.00 Build 0)  -->
<svg version="1.1" id="Layer_1" xmlns="http://www.w3.org/2000/svg" xmlns:xlink="http://www.w3.org/1999/xlink" x="0px" y="0px"
	 viewBox="0 0 110 110" style="enable-background:new 0 0 110 110;" xml:space="preserve">
<style type="text/css">
	.st0{fill:#25B7D3;}
	.st1{fill:#E2E4E5;}
	.st2{fill:#FFFFFF;}
	.st3{fill:#DF2C2C;}
	.st4{fill:#FA5655;}
</style>
<g id="R-Multicolor">
	<circle class="st0" cx="55" cy="55" r="55"/>
	<g>
		<path class="st1" d="M83.5,66.5c-3.1-3.1-7.6-4.2-11.6-3.1L50.2,41.7c1.7-4.9,0.7-10.6-3.3-14.6c-3.9-3.9-9.7-5-14.6-3.3
			l10.3,10.3v5.7l-2.8,2.8h-5.7L23.8,32.3c-1.8,4.9-0.7,10.6,3.3,14.6c3.9,3.9,9.7,5,14.6,3.3l21.7,21.7c-1.1,4,0,8.4,3.1,11.6
			c4.7,4.7,12.3,4.7,17,0C88.2,78.8,88.2,71.2,83.5,66.5z M76.9,82l-7-1.9l-1.9-7l5.1-5.1l7,1.9l1.9,7L76.9,82z"/>
		<path class="st2" d="M71.9,63.4L50.2,41.7c1.7-4.9,0.7-10.6-3.3-14.6c-3.9-3.9-9.7-5-14.6-3.3l10.3,10.3v5.7l-1.4,1.4l29.3,29.3
			l2.5-2.5l7,1.9l1.9,7l-2.5,2.5l4.1,4.1c4.6-4.7,4.6-12.2-0.1-16.9C80.3,63.4,75.9,62.3,71.9,63.4z"/>
		<path class="st3" d="M53.8,68.1c0.8-0.8,1.1-1.9,0.8-2.9c-0.3-1,0-2.1,0.8-2.9l2.8-2.8c0.4-0.4,0.4-1,0-1.4l-5.7-5.7
			c-0.4-0.4-1-0.4-1.4,0l-2.8,2.8c-0.8,0.8-1.9,1-2.9,0.8c-1-0.3-2.1,0-2.9,0.8L24.2,75c-3.5,3.5,7.8,14.8,11.3,11.3L53.8,68.1z"/>
		<polygon class="st1" points="83.2,24.5 71.2,30.9 70.5,35.9 53.2,53.1 57.5,57.3 74.7,40.1 79.6,39.5 86.1,27.4 		"/>
		<polygon class="st2" points="83.2,24.5 71.2,30.9 70.5,35.9 53.2,53.1 55.6,55.4 84.8,26.2 		"/>
		<path class="st4" d="M52.5,52.4c-0.4-0.4-1-0.4-1.4,0l-2.8,2.8c-0.8,0.8-1.9,1-2.9,0.8c-1-0.3-2.1,0-2.9,0.8L24.2,75
			c-1.8,1.8,0.3,5.7,3.2,8.5l28.1-28.1L52.5,52.4z"/>
	</g>
</g>
</svg>
