<?xml version="1.0" encoding="utf-8"?>
<!-- Generator: Adobe Illustrator 19.2.0, SVG Export Plug-In . SVG Version: 6.00 Build 0)  -->
<svg version="1.1" id="Capa_1" xmlns="http://www.w3.org/2000/svg" xmlns:xlink="http://www.w3.org/1999/xlink" x="0px" y="0px"
	 viewBox="0 0 512 512" style="enable-background:new 0 0 512 512;" xml:space="preserve">
<style type="text/css">
	.st0{fill:#FF3C63;}
	.st1{fill:#EA2F5C;}
	.st2{fill:#00DDC0;}
	.st3{fill:#00CDB3;}
	.st4{fill:#586C89;}
	.st5{fill:#6B7F9E;}
</style>
<path class="st0" d="M378.2,201.8c0,104.4-84.7,189.1-189.1,189.1c-6.9,0-13.7-0.4-20.4-1.1C73.8,379.6,0,299.3,0,201.8
	C0,97.4,84.7,12.7,189.1,12.7c89.3,0,164.2,61.9,183.9,145.2C376.4,172,378.2,186.7,378.2,201.8z"/>
<path class="st1" d="M373,157.9h-83.5v27.6L269.9,166l-93.3,92.7L196,278h-27.4v111.8c6.7,0.7,13.5,1.1,20.4,1.1
	c104.4,0,189.1-84.7,189.1-189.1C378.2,186.7,376.4,172,373,157.9z"/>
<path class="st2" d="M330.9,201.8c0,78.4-63.5,141.9-141.9,141.9c-6.9,0-13.8-0.5-20.4-1.5c-68.7-9.9-121.4-69-121.4-140.4
	C47.2,123.5,110.7,60,189.1,60c63,0,116.5,41.1,134.9,98C328.5,171.7,330.9,186.5,330.9,201.8z"/>
<path class="st3" d="M324,157.9h-22.4c-6.7,0-12.1,5.4-12.1,12.1v15.5l-11.1-11c-4.7-4.7-12.3-4.7-17,0l-76.2,75.7
	c-4.8,4.7-4.8,12.4,0,17.1L196,278h-15.3c-6.7,0-12.1,5.4-12.1,12.1v52.1c6.7,1,13.5,1.5,20.4,1.5c78.4,0,141.9-63.5,141.9-141.9
	C330.9,186.5,328.5,171.7,324,157.9z"/>
<path class="st4" d="M226.9,209.5h-44.1c-4.3,0-7.7-3.5-7.7-7.7v-88.6c0-4.3,3.5-7.7,7.7-7.7s7.7,3.5,7.7,7.7v80.9h36.4
	c4.3,0,7.7,3.5,7.7,7.7S231.2,209.5,226.9,209.5z"/>
<path class="st5" d="M512,370.9v-54.4c0-4.6-3.7-8.2-8.2-8.2h-15.8c-3.6,0-6.7-2.3-7.8-5.7c-2-6-4.4-11.7-7.2-17.2
	c-1.6-3.2-1.1-7.1,1.5-9.6l11.1-11c3.2-3.2,3.2-8.5,0-11.7l-38.8-38.6c-3.2-3.2-8.4-3.2-11.6,0l-11.2,11.1c-2.5,2.5-6.4,3.1-9.6,1.5
	c-5.6-2.8-11.4-5.2-17.4-7.2c-3.4-1.1-5.7-4.3-5.7-7.9v-15.6c0-4.6-3.7-8.2-8.2-8.2H328c-4.6,0-8.2,3.7-8.2,8.2V212
	c0,3.6-2.3,6.7-5.7,7.9c-6,2-11.9,4.4-17.5,7.2c-3.2,1.6-7,1-9.6-1.5l-11.2-11.1c-3.2-3.2-8.4-3.2-11.6,0l-38.8,38.6
	c-3.2,3.2-3.2,8.5,0,11.7l11.1,11c2.6,2.5,3.1,6.4,1.5,9.6c-2.8,5.5-5.2,11.3-7.2,17.2c-1.1,3.4-4.3,5.7-7.8,5.7h-15.8
	c-4.6,0-8.2,3.7-8.2,8.2v54.4c0,4.6,3.7,8.2,8.2,8.2h15.8c3.6,0,6.7,2.3,7.8,5.7c2,6,4.4,11.7,7.2,17.2c1.6,3.2,1.1,7.1-1.5,9.6
	l-11.1,11c-3.2,3.2-3.2,8.5,0,11.7l38.8,38.5c3.2,3.2,8.4,3.2,11.6,0l11.2-11.1c2.5-2.5,6.4-3.1,9.6-1.5c5.6,2.8,11.4,5.2,17.5,7.2
	c3.4,1.1,5.7,4.3,5.7,7.8V491c0,4.6,3.7,8.2,8.2,8.2h54.9c4.6,0,8.2-3.7,8.2-8.2v-15.6c0-3.6,2.3-6.7,5.7-7.8c6-2,11.9-4.4,17.5-7.2
	c3.2-1.6,7-1,9.6,1.5l11.2,11.1c3.2,3.2,8.4,3.2,11.6,0l38.8-38.5c3.2-3.2,3.2-8.5,0-11.7l-11.1-11c-2.6-2.5-3.1-6.4-1.5-9.6
	c2.8-5.5,5.2-11.3,7.2-17.2c1.1-3.4,4.3-5.7,7.8-5.7h15.8C508.3,379.2,512,375.5,512,370.9z M355.4,401.9
	c-32.2,0-58.4-26.1-58.4-58.2s26.1-58.2,58.4-58.2s58.4,26.1,58.4,58.2S387.7,401.9,355.4,401.9z"/>
<path class="st4" d="M355.4,252.9c-50.1,0-90.8,40.6-90.8,90.8c0,50.1,40.6,90.8,90.8,90.8c50.1,0,90.8-40.6,90.8-90.8
	C446.2,293.5,405.6,252.9,355.4,252.9z M355.4,401.9c-32.2,0-58.4-26.1-58.4-58.2s26.1-58.2,58.4-58.2s58.4,26.1,58.4,58.2
	S387.7,401.9,355.4,401.9z"/>
<g>
	<path class="st2" d="M494,149.4h-7v-7c0-4.3-3.5-7.7-7.7-7.7c-4.3,0-7.7,3.5-7.7,7.7v7h-7c-4.3,0-7.7,3.5-7.7,7.7s3.5,7.7,7.7,7.7
		h7v7c0,4.3,3.5,7.7,7.7,7.7c4.3,0,7.7-3.5,7.7-7.7v-7h7c4.3,0,7.7-3.5,7.7-7.7S498.3,149.4,494,149.4z"/>
	<path class="st2" d="M417.3,76h-7v-7c0-4.3-3.5-7.7-7.7-7.7c-4.3,0-7.7,3.5-7.7,7.7v7h-7c-4.3,0-7.7,3.5-7.7,7.7s3.5,7.7,7.7,7.7h7
		v7c0,4.3,3.5,7.7,7.7,7.7c4.3,0,7.7-3.5,7.7-7.7v-7h7c4.3,0,7.7-3.5,7.7-7.7S421.6,76,417.3,76z"/>
	<path class="st2" d="M467.3,59.8v-7h7c4.3,0,7.7-3.5,7.7-7.7s-3.5-7.7-7.7-7.7h-7v-7c0-4.3-3.5-7.7-7.7-7.7c-4.3,0-7.7,3.5-7.7,7.7
		v7h-7c-4.3,0-7.7,3.5-7.7,7.7s3.5,7.7,7.7,7.7h7v7c0,4.3,3.5,7.7,7.7,7.7C463.9,67.5,467.3,64.1,467.3,59.8z"/>
	<path class="st2" d="M62,401.6h-7v-7c0-4.3-3.5-7.7-7.7-7.7s-7.7,3.5-7.7,7.7v7h-7c-4.3,0-7.7,3.5-7.7,7.7c0,4.3,3.5,7.7,7.7,7.7h7
		v7c0,4.3,3.5,7.7,7.7,7.7s7.7-3.5,7.7-7.7v-7h7c4.3,0,7.7-3.5,7.7-7.7C69.7,405.1,66.2,401.6,62,401.6z"/>
</g>
</svg>
