<?xml version="1.0" encoding="utf-8"?>
<!-- Generator: Adobe Illustrator 19.2.0, SVG Export Plug-In . SVG Version: 6.00 Build 0)  -->
<svg version="1.1" id="Capa_1" xmlns="http://www.w3.org/2000/svg" xmlns:xlink="http://www.w3.org/1999/xlink" x="0px" y="0px"
	 viewBox="0 0 512 512" style="enable-background:new 0 0 512 512;" xml:space="preserve">
<style type="text/css">
	.st0{fill:#00DDC0;}
	.st1{fill:#00CDB3;}
	.st2{fill:#E0E0E3;}
	.st3{fill:#D1D1D1;}
	.st4{fill:#FCD842;}
	.st5{fill:#6B7F9E;}
	.st6{fill:#798DAA;}
	.st7{fill:#586C89;}
	.st8{fill:#FFCE00;}
	.st9{fill:#FFE571;}
</style>
<path class="st0" d="M492.4,235.9c3.2,1.8,4.3,5.9,2.4,9.1l-49.3,85.1l-0.6,1L433,351.6l-88.8-51.5l-61.8-35.8l0.2-0.3l24.6-42.5
	l37-63.8l0,0c1.8-3.2,5.9-4.3,9.1-2.4L492.4,235.9z"/>
<g>
	<path class="st1" d="M445.5,330.1l-0.6,1L433,351.6l-88.8-51.5l-61.8-35.8l0.2-0.3c13.4-4.4,27.7-6.8,42.6-6.8
		C377.4,257.2,422.8,286.8,445.5,330.1z"/>
	<polygon class="st1" points="344.2,157.7 344.2,300.2 282.4,264.3 307.2,221.5 	"/>
	<polygon class="st1" points="433,351.6 282.4,264.3 307.2,221.5 444.9,331.1 	"/>
</g>
<path class="st2" d="M459.5,263.8L432.6,310l-3.2,5.5L414.7,341l-114-66.1l9.8-16.9l14.7-25.4l20.2-34.9c8.9,5.1,20.3,2.1,25.4-6.8
	l81.8,47.4C447.5,247.3,450.6,258.6,459.5,263.8z"/>
<path class="st3" d="M432.6,310l-3.2,5.5L414.7,341l-114-66.1l9.8-16.9c4.8-0.5,9.7-0.8,14.6-0.8C368.9,257.2,407.8,277.9,432.6,310
	z"/>
<circle class="st4" cx="387.1" cy="257.2" r="13.6"/>
<g>
	<path class="st0" d="M432.3,279.7c-1.3,0-2.6-0.3-3.8-1l-3.1-1.8c-3.6-2.1-4.9-6.8-2.8-10.4c2.1-3.6,6.8-4.9,10.4-2.8l3.1,1.8
		c3.6,2.1,4.9,6.8,2.8,10.4C437.5,278.3,434.9,279.7,432.3,279.7z"/>
	<path class="st0" d="M422.8,296.1c-1.3,0-2.6-0.3-3.8-1l-3.1-1.8c-3.6-2.1-4.9-6.8-2.8-10.4c2.1-3.6,6.8-4.9,10.4-2.8l3.1,1.8
		c3.6,2.1,4.9,6.8,2.8,10.4C427.9,294.7,425.4,296.1,422.8,296.1z"/>
	<path class="st0" d="M316.9,82.5v364.1c0,13.6-11,24.7-24.7,24.7H41c-13.6,0-24.7-11-24.7-24.7V82.5c0-13.6,11-24.7,24.7-24.7
		h251.3C305.9,57.8,316.9,68.9,316.9,82.5z"/>
</g>
<g>
	<path class="st1" d="M316.9,256v190.6c0,13.6-11,24.7-24.7,24.7h-79.9c-15.4-22.2-24.5-49.1-24.5-78.2
		C187.9,319.9,244.9,260.2,316.9,256z"/>
	<rect x="90.7" y="57.8" class="st1" width="153.1" height="28.7"/>
</g>
<path class="st2" d="M287.3,94.7v337c0,4.5-3.6,8.1-8.1,8.1h-224c-4.5,0-8.1-3.6-8.1-8.1v-337c0-4.5,3.6-8.1,8.1-8.1h224
	C283.7,86.6,287.3,90.2,287.3,94.7z"/>
<g>
	<path class="st3" d="M287.3,261v170.7c0,4.5-3.6,8.1-8.1,8.1h-83.1c-3.1-8.5-5.3-17.4-6.7-26.5c-1-6.6-1.5-13.4-1.5-20.3
		C187.9,330.3,229.9,277.4,287.3,261z"/>
	<path class="st3" d="M287.3,413.3v18.4c0,4.5-3.6,8.1-8.1,8.1h-224c-4.5,0-8.1-3.6-8.1-8.1v-18.4H287.3z"/>
	<path class="st3" d="M233.6,124.8H100.8c-5.6,0-10.1-4.5-10.1-10.1V86.6h153.1v28.1C243.7,120.3,239.2,124.8,233.6,124.8z"/>
</g>
<path class="st5" d="M190.8,47.1c3.7-4.9,5.9-11,5.9-17.7c0-16.3-13.1-29.4-29.4-29.4c-16.3,0-29.5,13.2-29.5,29.4
	c0,6.6,2.2,12.7,5.9,17.7h-19.4c-4.5,0-8.1,3.6-8.1,8.1v39.1c0,4.5,3.6,8.1,8.1,8.1h85.8c4.5,0,8.1-3.6,8.1-8.1V55.2
	c0-4.5-3.6-8.1-8.1-8.1C210.1,47.1,190.8,47.1,190.8,47.1z"/>
<path class="st6" d="M196.6,29.4c0,3.3-0.5,6.5-1.5,9.4c-3.9-11.6-14.9-20-27.9-20s-24,8.4-27.9,20c-1-3-1.5-6.1-1.5-9.4
	c0-16.3,13.2-29.4,29.4-29.4S196.6,13.2,196.6,29.4z"/>
<path class="st7" d="M210.1,102.4h-85.8c-4.5,0-8.1-3.6-8.1-8.1V78.7h102v15.6C218.2,98.8,214.6,102.4,210.1,102.4z"/>
<circle class="st0" cx="103.2" cy="177.2" r="15.4"/>
<g>
	<path class="st7" d="M184.9,169.4H155c-4.2,0-7.6-3.4-7.6-7.6s3.4-7.6,7.6-7.6h29.8c4.2,0,7.6,3.4,7.6,7.6S189.1,169.4,184.9,169.4
		z"/>
	<path class="st7" d="M243.7,200.1H155c-4.2,0-7.6-3.4-7.6-7.6s3.4-7.6,7.6-7.6h88.7c4.2,0,7.6,3.4,7.6,7.6S247.9,200.1,243.7,200.1
		z"/>
</g>
<circle class="st0" cx="103.2" cy="263.2" r="15.4"/>
<g>
	<path class="st7" d="M184.9,255.4H155c-4.2,0-7.6-3.4-7.6-7.6s3.4-7.6,7.6-7.6h29.8c4.2,0,7.6,3.4,7.6,7.6S189.1,255.4,184.9,255.4
		z"/>
	<path class="st7" d="M243.7,286.2H155c-4.2,0-7.6-3.4-7.6-7.6c0-4.2,3.4-7.6,7.6-7.6h88.7c4.2,0,7.6,3.4,7.6,7.6
		S247.9,286.2,243.7,286.2z"/>
</g>
<circle class="st8" cx="103.2" cy="349.2" r="15.4"/>
<g>
	<path class="st7" d="M184.9,341.5H155c-4.2,0-7.6-3.4-7.6-7.6c0-4.2,3.4-7.6,7.6-7.6h29.8c4.2,0,7.6,3.4,7.6,7.6
		S189.1,341.5,184.9,341.5z"/>
	<path class="st7" d="M243.7,372.2H155c-4.2,0-7.6-3.4-7.6-7.6c0-4.2,3.4-7.6,7.6-7.6h88.7c4.2,0,7.6,3.4,7.6,7.6
		S247.9,372.2,243.7,372.2z"/>
</g>
<circle class="st8" cx="325.1" cy="393" r="119"/>
<circle class="st9" cx="325.1" cy="393" r="81.1"/>
<path class="st8" d="M330.5,386.6h-9.8c-2.9,0-5.2-2.3-5.2-5.2c0-2.9,2.3-5.2,5.2-5.2h15c0.4,3.8,3.6,6.7,7.6,6.7
	c4.2,0,7.6-3.4,7.6-7.6c0-7.9-6.4-14.3-14.3-14.3h-3.3v-7.7c0-4.2-3.4-7.6-7.6-7.6s-7.6,3.4-7.6,7.6v7.9c-10,1.3-17.7,9.9-17.7,20.2
	c0,11.3,9.2,20.4,20.4,20.4h9.8c2.9,0,5.2,2.3,5.2,5.2s-2.3,5.2-5.2,5.2h-15c-0.4-3.8-3.6-6.7-7.6-6.7c-4.2,0-7.6,3.4-7.6,7.6
	c0,7.9,6.4,14.3,14.3,14.3h3.3v7.7c0,4.2,3.4,7.6,7.6,7.6s7.6-3.4,7.6-7.6v-7.9c10-1.3,17.7-9.9,17.7-20.2
	C350.9,395.8,341.7,386.6,330.5,386.6z"/>
<g>
	<path class="st7" d="M354.4,129.5h-6.9c-4.2,0-7.6-3.4-7.6-7.6c0-4.2,3.4-7.6,7.6-7.6h6.9c4.2,0,7.6,3.4,7.6,7.6
		C362,126.1,358.6,129.5,354.4,129.5z"/>
	<path class="st7" d="M354.4,102.7h-6.9c-4.2,0-7.6-3.4-7.6-7.6s3.4-7.6,7.6-7.6h6.9c4.2,0,7.6,3.4,7.6,7.6S358.6,102.7,354.4,102.7
		z"/>
	<path class="st7" d="M354.4,75.8h-6.9c-4.2,0-7.6-3.4-7.6-7.6s3.4-7.6,7.6-7.6h6.9c4.2,0,7.6,3.4,7.6,7.6S358.6,75.8,354.4,75.8z"
		/>
</g>
</svg>
