<?xml version="1.0" encoding="utf-8"?>
<!-- Generator: Adobe Illustrator 19.2.0, SVG Export Plug-In . SVG Version: 6.00 Build 0)  -->
<svg version="1.1" id="Capa_1" xmlns="http://www.w3.org/2000/svg" xmlns:xlink="http://www.w3.org/1999/xlink" x="0px" y="0px"
	 viewBox="0 0 512 512" style="enable-background:new 0 0 512 512;" xml:space="preserve">
<style type="text/css">
	.st0{fill:#FFDA2D;}
	.st1{fill:#FFCE00;}
	.st2{fill:#E0E0E3;}
	.st3{fill:#D1D1D1;}
	.st4{fill:#6B7F9E;}
	.st5{fill:#798DAA;}
	.st6{fill:#586C89;}
	.st7{fill:#00DDC0;}
	.st8{fill:#FF3C63;}
</style>
<path class="st0" d="M392.5,512h-273c-14.8,0-26.8-12-26.8-26.8V89.6c0-14.8,12-26.8,26.8-26.8h273c14.8,0,26.8,12,26.8,26.8v395.5
	C419.3,500,407.3,512,392.5,512z"/>
<rect x="173.5" y="62.8" class="st1" width="166.3" height="31.2"/>
<path class="st2" d="M387.1,102.3v367.4c0,4.5-3.7,8.2-8.2,8.2H134.4c-4.6,0-8.2-3.7-8.2-8.2V102.3c0-4.5,3.7-8.2,8.2-8.2h244.5
	C383.5,94,387.1,97.7,387.1,102.3z"/>
<g>
	<path class="st3" d="M387.1,440.8v28.9c0,4.5-3.7,8.2-8.2,8.2H134.4c-4.6,0-8.2-3.7-8.2-8.2v-28.9H387.1z"/>
	<path class="st3" d="M329.5,135.6H183.8c-5.7,0-10.3-4.6-10.3-10.3V94h166.3v31.3C339.8,131,335.2,135.6,329.5,135.6z"/>
</g>
<path class="st4" d="M282.2,51.2c4.4-5.8,6.8-13.1,6.3-21c-0.9-15.9-13.7-29-29.7-30.1c-18.7-1.3-34.3,13.5-34.3,31.9
	c0,7.2,2.4,13.8,6.4,19.2h-21.6c-4.6,0-8.2,3.7-8.2,8.2v43.7c0,4.6,3.7,8.2,8.2,8.2h94.4c4.6,0,8.2-3.7,8.2-8.2V59.4
	c0-4.6-3.7-8.2-8.2-8.2L282.2,51.2L282.2,51.2z"/>
<path class="st5" d="M288.6,32c0,3.6-0.6,7-1.7,10.2c-4.3-12.7-16.2-21.8-30.3-21.8s-26.1,9.1-30.3,21.8c-1.1-3.2-1.7-6.7-1.7-10.2
	c0-17.7,14.3-32,32-32C274.3,0,288.6,14.3,288.6,32z"/>
<path class="st6" d="M303.8,111.3h-94.4c-4.6,0-8.2-3.7-8.2-8.2V85.5h110.9v17.6C312.1,107.6,308.4,111.3,303.8,111.3z"/>
<circle class="st7" cx="187.1" cy="192.5" r="16.7"/>
<g>
	<path class="st6" d="M275.8,183.5h-32.4c-4.3,0-7.7-3.5-7.7-7.7s3.5-7.7,7.7-7.7h32.4c4.3,0,7.7,3.5,7.7,7.7
		C283.6,180,280.1,183.5,275.8,183.5z"/>
	<path class="st6" d="M339.8,216.9h-96.4c-4.3,0-7.7-3.5-7.7-7.7s3.5-7.7,7.7-7.7h96.4c4.3,0,7.7,3.5,7.7,7.7
		S344.1,216.9,339.8,216.9z"/>
</g>
<circle class="st7" cx="187.1" cy="286" r="16.7"/>
<g>
	<path class="st6" d="M275.8,277h-32.4c-4.3,0-7.7-3.5-7.7-7.7s3.5-7.7,7.7-7.7h32.4c4.3,0,7.7,3.5,7.7,7.7
		C283.6,273.5,280.1,277,275.8,277z"/>
	<path class="st6" d="M339.8,310.4h-96.4c-4.3,0-7.7-3.5-7.7-7.7s3.5-7.7,7.7-7.7h96.4c4.3,0,7.7,3.5,7.7,7.7
		S344.1,310.4,339.8,310.4z"/>
</g>
<circle class="st8" cx="187.1" cy="379.4" r="16.7"/>
<g>
	<path class="st6" d="M275.8,370.5h-32.4c-4.3,0-7.7-3.5-7.7-7.7s3.5-7.7,7.7-7.7h32.4c4.3,0,7.7,3.5,7.7,7.7
		C283.6,367,280.1,370.5,275.8,370.5z"/>
	<path class="st6" d="M339.8,403.9h-96.4c-4.3,0-7.7-3.5-7.7-7.7s3.5-7.7,7.7-7.7h96.4c4.3,0,7.7,3.5,7.7,7.7
		S344.1,403.9,339.8,403.9z"/>
</g>
<g>
	<path class="st4" d="M52.7,153.1h-7c-4.3,0-7.7-3.5-7.7-7.7s3.5-7.7,7.7-7.7h7c4.3,0,7.7,3.5,7.7,7.7
		C60.4,149.6,56.9,153.1,52.7,153.1z"/>
	<path class="st4" d="M52.7,125.8h-7c-4.3,0-7.7-3.5-7.7-7.7s3.5-7.7,7.7-7.7h7c4.3,0,7.7,3.5,7.7,7.7
		C60.4,122.3,56.9,125.8,52.7,125.8z"/>
	<path class="st4" d="M52.7,98.5h-7c-4.3,0-7.7-3.5-7.7-7.7s3.5-7.7,7.7-7.7h7c4.3,0,7.7,3.5,7.7,7.7S56.9,98.5,52.7,98.5z"/>
	<path class="st4" d="M466.3,494.3h-7c-4.3,0-7.7-3.5-7.7-7.7s3.5-7.7,7.7-7.7h7c4.3,0,7.7,3.5,7.7,7.7
		C474.1,490.9,470.6,494.3,466.3,494.3z"/>
	<path class="st4" d="M466.3,467h-7c-4.3,0-7.7-3.5-7.7-7.7s3.5-7.7,7.7-7.7h7c4.3,0,7.7,3.5,7.7,7.7
		C474.1,463.6,470.6,467,466.3,467z"/>
	<path class="st4" d="M466.3,439.8h-7c-4.3,0-7.7-3.5-7.7-7.7s3.5-7.7,7.7-7.7h7c4.3,0,7.7,3.5,7.7,7.7S470.6,439.8,466.3,439.8z"/>
</g>
</svg>
